<mxfile host="65bd71144e">
    <diagram id="amNv9ukt2pe7MVWZNoAQ" name="Page-1">
        <mxGraphModel dx="1602" dy="517" grid="1" gridSize="10" guides="1" tooltips="1" connect="1" arrows="1" fold="1" page="1" pageScale="1" pageWidth="850" pageHeight="1100" math="0" shadow="0">
            <root>
                <mxCell id="0"/>
                <mxCell id="1" parent="0"/>
                <mxCell id="9" style="html=1;entryX=0.5;entryY=0;entryDx=0;entryDy=0;edgeStyle=orthogonalEdgeStyle;exitX=0;exitY=0.5;exitDx=0;exitDy=0;" parent="1" source="2" target="3" edge="1">
                    <mxGeometry relative="1" as="geometry"/>
                </mxCell>
                <mxCell id="2" value="Product Backlog Grooming" style="rounded=0;whiteSpace=wrap;html=1;fillColor=#dae8fc;strokeColor=#6c8ebf;" parent="1" vertex="1">
                    <mxGeometry x="160" y="280" width="120" height="80" as="geometry"/>
                </mxCell>
                <mxCell id="10" style="edgeStyle=orthogonalEdgeStyle;html=1;entryX=0;entryY=0.5;entryDx=0;entryDy=0;exitX=0.5;exitY=1;exitDx=0;exitDy=0;" parent="1" source="3" target="4" edge="1">
                    <mxGeometry relative="1" as="geometry"/>
                </mxCell>
                <mxCell id="3" value="Sprint Planning" style="rounded=0;whiteSpace=wrap;html=1;fillColor=#dae8fc;strokeColor=#6c8ebf;" parent="1" vertex="1">
                    <mxGeometry x="80" y="400" width="120" height="80" as="geometry"/>
                </mxCell>
                <mxCell id="11" style="edgeStyle=orthogonalEdgeStyle;html=1;" parent="1" source="4" target="6" edge="1">
                    <mxGeometry relative="1" as="geometry"/>
                </mxCell>
                <mxCell id="14" style="edgeStyle=orthogonalEdgeStyle;html=1;entryX=1;entryY=0.5;entryDx=0;entryDy=0;exitX=1;exitY=0.25;exitDx=0;exitDy=0;" parent="1" source="4" target="5" edge="1">
                    <mxGeometry relative="1" as="geometry">
                        <Array as="points">
                            <mxPoint x="380" y="540"/>
                            <mxPoint x="380" y="460"/>
                        </Array>
                    </mxGeometry>
                </mxCell>
                <mxCell id="4" value="Sprint Execution" style="rounded=0;whiteSpace=wrap;html=1;fillColor=#dae8fc;strokeColor=#6c8ebf;" parent="1" vertex="1">
                    <mxGeometry x="240" y="520" width="120" height="80" as="geometry"/>
                </mxCell>
                <mxCell id="5" value="Daily Scrum" style="rounded=0;whiteSpace=wrap;html=1;fillColor=#dae8fc;strokeColor=#6c8ebf;" parent="1" vertex="1">
                    <mxGeometry x="240" y="420" width="120" height="80" as="geometry"/>
                </mxCell>
                <mxCell id="12" style="edgeStyle=orthogonalEdgeStyle;html=1;entryX=1;entryY=0.5;entryDx=0;entryDy=0;" parent="1" source="6" target="7" edge="1">
                    <mxGeometry relative="1" as="geometry"/>
                </mxCell>
                <mxCell id="6" value="Sprint Review" style="rounded=0;whiteSpace=wrap;html=1;fillColor=#dae8fc;strokeColor=#6c8ebf;" parent="1" vertex="1">
                    <mxGeometry x="400" y="400" width="120" height="80" as="geometry"/>
                </mxCell>
                <mxCell id="7" value="Sprint Retrospective" style="rounded=0;whiteSpace=wrap;html=1;fillColor=#dae8fc;strokeColor=#6c8ebf;" parent="1" vertex="1">
                    <mxGeometry x="320" y="280" width="120" height="80" as="geometry"/>
                </mxCell>
                <mxCell id="15" style="edgeStyle=orthogonalEdgeStyle;html=1;entryX=0;entryY=0.25;entryDx=0;entryDy=0;exitX=0;exitY=0.5;exitDx=0;exitDy=0;" parent="1" source="5" target="4" edge="1">
                    <mxGeometry relative="1" as="geometry">
                        <mxPoint x="370" y="270" as="sourcePoint"/>
                        <mxPoint x="370" y="170" as="targetPoint"/>
                        <Array as="points">
                            <mxPoint x="220" y="460"/>
                            <mxPoint x="220" y="540"/>
                        </Array>
                    </mxGeometry>
                </mxCell>
                <mxCell id="16" style="edgeStyle=orthogonalEdgeStyle;html=1;entryX=1;entryY=0.5;entryDx=0;entryDy=0;exitX=0;exitY=0.5;exitDx=0;exitDy=0;" parent="1" source="7" target="2" edge="1">
                    <mxGeometry relative="1" as="geometry">
                        <mxPoint x="310" y="300" as="sourcePoint"/>
                        <mxPoint x="300" y="290" as="targetPoint"/>
                        <Array as="points"/>
                    </mxGeometry>
                </mxCell>
                <mxCell id="42" style="edgeStyle=orthogonalEdgeStyle;html=1;entryX=0;entryY=0.5;entryDx=0;entryDy=0;exitX=0.5;exitY=1;exitDx=0;exitDy=0;dashed=1;" parent="1" source="17" target="36" edge="1">
                    <mxGeometry relative="1" as="geometry"/>
                </mxCell>
                <mxCell id="17" value="Product Backlog&lt;span style=&quot;color: rgba(0, 0, 0, 0); font-family: monospace; font-size: 0px; text-align: start;&quot;&gt;%3CmxGraphModel%3E%3Croot%3E%3CmxCell%20id%3D%220%22%2F%3E%3CmxCell%20id%3D%221%22%20parent%3D%220%22%2F%3E%3CmxCell%20id%3D%222%22%20value%3D%22Sprint%20Execution%22%20style%3D%22rounded%3D0%3BwhiteSpace%3Dwrap%3Bhtml%3D1%3B%22%20vertex%3D%221%22%20parent%3D%221%22%3E%3CmxGeometry%20x%3D%22240%22%20y%3D%22280%22%20width%3D%22120%22%20height%3D%2280%22%20as%3D%22geometry%22%2F%3E%3C%2FmxCell%3E%3C%2Froot%3E%3C%2FmxGraphModel%3E&lt;/span&gt;" style="rounded=0;whiteSpace=wrap;html=1;fillColor=#e1d5e7;strokeColor=#9673a6;" parent="1" vertex="1">
                    <mxGeometry x="-80" y="480" width="120" height="40" as="geometry"/>
                </mxCell>
                <mxCell id="40" style="edgeStyle=orthogonalEdgeStyle;html=1;entryX=0;entryY=0.5;entryDx=0;entryDy=0;exitX=0.5;exitY=1;exitDx=0;exitDy=0;dashed=1;" parent="1" source="18" target="36" edge="1">
                    <mxGeometry relative="1" as="geometry"/>
                </mxCell>
                <mxCell id="18" value="Sprint Backlog" style="rounded=0;whiteSpace=wrap;html=1;fillColor=#e1d5e7;strokeColor=#9673a6;" parent="1" vertex="1">
                    <mxGeometry x="1" y="560" width="120" height="40" as="geometry"/>
                </mxCell>
                <mxCell id="24" style="edgeStyle=orthogonalEdgeStyle;html=1;entryX=0.5;entryY=0;entryDx=0;entryDy=0;exitX=1;exitY=0.5;exitDx=0;exitDy=0;" parent="1" source="21" target="22" edge="1">
                    <mxGeometry relative="1" as="geometry">
                        <Array as="points">
                            <mxPoint x="460" y="760"/>
                        </Array>
                    </mxGeometry>
                </mxCell>
                <mxCell id="44" style="edgeStyle=orthogonalEdgeStyle;html=1;entryX=1;entryY=0.5;entryDx=0;entryDy=0;exitX=0;exitY=0.25;exitDx=0;exitDy=0;dashed=1;" parent="1" source="21" target="33" edge="1">
                    <mxGeometry relative="1" as="geometry"/>
                </mxCell>
                <mxCell id="88" value="Produces" style="edgeLabel;html=1;align=center;verticalAlign=middle;resizable=0;points=[];fontSize=14;" parent="44" vertex="1" connectable="0">
                    <mxGeometry x="0.1713" relative="1" as="geometry">
                        <mxPoint x="10" as="offset"/>
                    </mxGeometry>
                </mxCell>
                <mxCell id="21" value="Financial Execution" style="rounded=0;whiteSpace=wrap;html=1;fillColor=#d5e8d4;strokeColor=#82b366;" parent="1" vertex="1">
                    <mxGeometry x="240" y="720" width="120" height="80" as="geometry"/>
                </mxCell>
                <mxCell id="94" style="edgeStyle=orthogonalEdgeStyle;html=1;entryX=0.5;entryY=1;entryDx=0;entryDy=0;fontSize=14;exitX=0.5;exitY=1;exitDx=0;exitDy=0;" parent="1" source="22" target="34" edge="1">
                    <mxGeometry relative="1" as="geometry">
                        <Array as="points">
                            <mxPoint x="460" y="920"/>
                            <mxPoint x="140" y="920"/>
                        </Array>
                    </mxGeometry>
                </mxCell>
                <mxCell id="22" value="Financial Monitoring&lt;br&gt;and Evaluation" style="rounded=0;whiteSpace=wrap;html=1;fillColor=#d5e8d4;strokeColor=#82b366;" parent="1" vertex="1">
                    <mxGeometry x="400" y="800" width="120" height="80" as="geometry"/>
                </mxCell>
                <mxCell id="26" style="edgeStyle=orthogonalEdgeStyle;html=1;entryX=0;entryY=0.5;entryDx=0;entryDy=0;exitX=0.5;exitY=0;exitDx=0;exitDy=0;startArrow=none;" parent="1" source="34" target="21" edge="1">
                    <mxGeometry relative="1" as="geometry">
                        <Array as="points"/>
                    </mxGeometry>
                </mxCell>
                <mxCell id="43" style="edgeStyle=orthogonalEdgeStyle;html=1;entryX=0;entryY=0.5;entryDx=0;entryDy=0;exitX=0.5;exitY=0;exitDx=0;exitDy=0;dashed=1;" parent="1" source="32" target="36" edge="1">
                    <mxGeometry relative="1" as="geometry"/>
                </mxCell>
                <mxCell id="32" value="Budget" style="rounded=0;whiteSpace=wrap;html=1;fillColor=#e1d5e7;strokeColor=#9673a6;" parent="1" vertex="1">
                    <mxGeometry x="-80" y="780" width="120" height="40" as="geometry"/>
                </mxCell>
                <mxCell id="41" style="edgeStyle=orthogonalEdgeStyle;html=1;entryX=0;entryY=0.5;entryDx=0;entryDy=0;exitX=0.5;exitY=0;exitDx=0;exitDy=0;dashed=1;" parent="1" source="33" target="36" edge="1">
                    <mxGeometry relative="1" as="geometry"/>
                </mxCell>
                <mxCell id="93" value="Used in" style="edgeLabel;html=1;align=center;verticalAlign=middle;resizable=0;points=[];fontSize=14;" parent="41" vertex="1" connectable="0">
                    <mxGeometry x="0.4329" relative="1" as="geometry">
                        <mxPoint x="8" as="offset"/>
                    </mxGeometry>
                </mxCell>
                <mxCell id="33" value="Expenditure" style="rounded=0;whiteSpace=wrap;html=1;fillColor=#e1d5e7;strokeColor=#9673a6;" parent="1" vertex="1">
                    <mxGeometry x="1" y="720" width="120" height="40" as="geometry"/>
                </mxCell>
                <mxCell id="34" value="Financial Planning" style="rounded=0;whiteSpace=wrap;html=1;fillColor=#d5e8d4;strokeColor=#82b366;" parent="1" vertex="1">
                    <mxGeometry x="80" y="800" width="120" height="80" as="geometry"/>
                </mxCell>
                <mxCell id="39" style="edgeStyle=orthogonalEdgeStyle;html=1;entryX=0;entryY=0.5;entryDx=0;entryDy=0;dashed=1;" parent="1" source="36" target="37" edge="1">
                    <mxGeometry relative="1" as="geometry"/>
                </mxCell>
                <mxCell id="92" value="Outputs" style="edgeLabel;html=1;align=center;verticalAlign=middle;resizable=0;points=[];fontSize=14;" parent="39" vertex="1" connectable="0">
                    <mxGeometry x="-0.6621" y="2" relative="1" as="geometry">
                        <mxPoint x="34" y="2" as="offset"/>
                    </mxGeometry>
                </mxCell>
                <mxCell id="36" value="Earned Value Management" style="rounded=0;whiteSpace=wrap;html=1;" parent="1" vertex="1">
                    <mxGeometry x="240" y="640" width="120" height="40" as="geometry"/>
                </mxCell>
                <mxCell id="37" value="Project&lt;br&gt;Health" style="rounded=0;whiteSpace=wrap;html=1;" parent="1" vertex="1">
                    <mxGeometry x="510" y="640" width="120" height="40" as="geometry"/>
                </mxCell>
                <mxCell id="45" style="edgeStyle=orthogonalEdgeStyle;html=1;entryX=0.5;entryY=1;entryDx=0;entryDy=0;exitX=0;exitY=0.5;exitDx=0;exitDy=0;dashed=1;" parent="1" source="34" target="32" edge="1">
                    <mxGeometry relative="1" as="geometry">
                        <mxPoint x="250" y="750" as="sourcePoint"/>
                        <mxPoint x="131" y="750" as="targetPoint"/>
                    </mxGeometry>
                </mxCell>
                <mxCell id="89" value="Produces" style="edgeLabel;html=1;align=center;verticalAlign=middle;resizable=0;points=[];fontSize=14;" parent="45" vertex="1" connectable="0">
                    <mxGeometry x="-0.4406" y="-1" relative="1" as="geometry">
                        <mxPoint x="-6" y="1" as="offset"/>
                    </mxGeometry>
                </mxCell>
                <mxCell id="46" style="edgeStyle=orthogonalEdgeStyle;html=1;entryX=0.5;entryY=0;entryDx=0;entryDy=0;exitX=0;exitY=0.5;exitDx=0;exitDy=0;dashed=1;" parent="1" source="3" target="18" edge="1">
                    <mxGeometry relative="1" as="geometry">
                        <mxPoint x="250" y="750" as="sourcePoint"/>
                        <mxPoint x="131" y="750" as="targetPoint"/>
                    </mxGeometry>
                </mxCell>
                <mxCell id="90" value="Produces" style="edgeLabel;html=1;align=center;verticalAlign=middle;resizable=0;points=[];fontSize=14;" parent="46" vertex="1" connectable="0">
                    <mxGeometry x="-0.006" y="2" relative="1" as="geometry">
                        <mxPoint x="-2" y="45" as="offset"/>
                    </mxGeometry>
                </mxCell>
                <mxCell id="47" style="edgeStyle=orthogonalEdgeStyle;html=1;entryX=0.5;entryY=0;entryDx=0;entryDy=0;exitX=0;exitY=0.25;exitDx=0;exitDy=0;dashed=1;" parent="1" source="2" target="17" edge="1">
                    <mxGeometry relative="1" as="geometry">
                        <mxPoint x="90" y="450" as="sourcePoint"/>
                        <mxPoint x="71" y="570" as="targetPoint"/>
                    </mxGeometry>
                </mxCell>
                <mxCell id="91" value="Produces" style="edgeLabel;html=1;align=center;verticalAlign=middle;resizable=0;points=[];fontSize=14;" parent="47" vertex="1" connectable="0">
                    <mxGeometry x="-0.6921" relative="1" as="geometry">
                        <mxPoint as="offset"/>
                    </mxGeometry>
                </mxCell>
                <mxCell id="48" style="edgeStyle=orthogonalEdgeStyle;html=1;entryX=1;entryY=0.5;entryDx=0;entryDy=0;dashed=1;exitX=0.5;exitY=1;exitDx=0;exitDy=0;" parent="1" source="37" target="22" edge="1">
                    <mxGeometry relative="1" as="geometry">
                        <mxPoint x="660" y="780" as="sourcePoint"/>
                        <mxPoint x="131" y="750" as="targetPoint"/>
                    </mxGeometry>
                </mxCell>
                <mxCell id="87" value="Impacts" style="edgeLabel;html=1;align=center;verticalAlign=middle;resizable=0;points=[];fontSize=14;" parent="48" vertex="1" connectable="0">
                    <mxGeometry x="-0.7528" y="1" relative="1" as="geometry">
                        <mxPoint x="-1" y="14" as="offset"/>
                    </mxGeometry>
                </mxCell>
                <mxCell id="50" style="edgeStyle=orthogonalEdgeStyle;html=1;dashed=1;exitX=0.5;exitY=0;exitDx=0;exitDy=0;entryX=1;entryY=0.25;entryDx=0;entryDy=0;" parent="1" source="37" target="7" edge="1">
                    <mxGeometry relative="1" as="geometry">
                        <mxPoint x="589.9999999999995" y="690.0000000000002" as="sourcePoint"/>
                        <mxPoint x="610" y="490" as="targetPoint"/>
                    </mxGeometry>
                </mxCell>
                <mxCell id="86" value="Impacts" style="edgeLabel;html=1;align=center;verticalAlign=middle;resizable=0;points=[];fontSize=14;" parent="50" vertex="1" connectable="0">
                    <mxGeometry x="-0.5734" relative="1" as="geometry">
                        <mxPoint y="60" as="offset"/>
                    </mxGeometry>
                </mxCell>
                <mxCell id="52" value="&lt;font style=&quot;font-size: 14px;&quot;&gt;&lt;b&gt;Iteration Period&lt;/b&gt;&lt;br&gt;2 weeks - 1 month&lt;/font&gt;" style="text;html=1;strokeColor=none;fillColor=none;align=center;verticalAlign=middle;whiteSpace=wrap;rounded=0;" parent="1" vertex="1">
                    <mxGeometry x="240" y="375" width="120" height="30" as="geometry"/>
                </mxCell>
                <mxCell id="53" value="&lt;font style=&quot;font-size: 14px;&quot;&gt;&lt;b&gt;Iteration Period&lt;/b&gt;&lt;br&gt;1 month&lt;/font&gt;" style="text;html=1;strokeColor=none;fillColor=none;align=center;verticalAlign=middle;whiteSpace=wrap;rounded=0;" parent="1" vertex="1">
                    <mxGeometry x="240" y="825" width="120" height="30" as="geometry"/>
                </mxCell>
                <mxCell id="95" value="" style="group" parent="1" vertex="1" connectable="0">
                    <mxGeometry x="-80" y="960" width="400" height="120" as="geometry"/>
                </mxCell>
                <mxCell id="56" value="" style="rounded=0;whiteSpace=wrap;html=1;fontSize=14;fillColor=none;" parent="95" vertex="1">
                    <mxGeometry width="400" height="120" as="geometry"/>
                </mxCell>
                <mxCell id="61" value="" style="group" parent="95" vertex="1" connectable="0">
                    <mxGeometry x="10" y="5" width="190" height="30" as="geometry"/>
                </mxCell>
                <mxCell id="58" value="Scrum iteration" style="text;html=1;strokeColor=none;fillColor=none;align=left;verticalAlign=middle;whiteSpace=wrap;rounded=0;fontSize=14;" parent="61" vertex="1">
                    <mxGeometry x="30" width="160" height="30" as="geometry"/>
                </mxCell>
                <mxCell id="59" value="" style="rounded=0;whiteSpace=wrap;html=1;fontSize=14;fillColor=#dae8fc;strokeColor=#6c8ebf;" parent="61" vertex="1">
                    <mxGeometry y="5" width="20" height="20" as="geometry"/>
                </mxCell>
                <mxCell id="65" value="" style="group" parent="95" vertex="1" connectable="0">
                    <mxGeometry x="10" y="45" width="190" height="30" as="geometry"/>
                </mxCell>
                <mxCell id="66" value="Financial iteration" style="text;html=1;strokeColor=none;fillColor=none;align=left;verticalAlign=middle;whiteSpace=wrap;rounded=0;fontSize=14;" parent="65" vertex="1">
                    <mxGeometry x="30" width="160" height="30" as="geometry"/>
                </mxCell>
                <mxCell id="67" value="" style="rounded=0;whiteSpace=wrap;html=1;fontSize=14;fillColor=#d5e8d4;strokeColor=#82b366;" parent="65" vertex="1">
                    <mxGeometry y="5" width="20" height="20" as="geometry"/>
                </mxCell>
                <mxCell id="68" value="" style="group" parent="95" vertex="1" connectable="0">
                    <mxGeometry x="10" y="84" width="190" height="30" as="geometry"/>
                </mxCell>
                <mxCell id="69" value="Artifact" style="text;html=1;strokeColor=none;fillColor=none;align=left;verticalAlign=middle;whiteSpace=wrap;rounded=0;fontSize=14;" parent="68" vertex="1">
                    <mxGeometry x="30" width="160" height="30" as="geometry"/>
                </mxCell>
                <mxCell id="70" value="" style="rounded=0;whiteSpace=wrap;html=1;fontSize=14;fillColor=#e1d5e7;strokeColor=#9673a6;" parent="68" vertex="1">
                    <mxGeometry y="5" width="20" height="20" as="geometry"/>
                </mxCell>
                <mxCell id="79" style="edgeStyle=orthogonalEdgeStyle;html=1;fontSize=14;" parent="95" edge="1">
                    <mxGeometry relative="1" as="geometry">
                        <mxPoint x="210" y="20" as="sourcePoint"/>
                        <mxPoint x="230" y="20" as="targetPoint"/>
                    </mxGeometry>
                </mxCell>
                <mxCell id="78" value="Cycle" style="text;html=1;strokeColor=none;fillColor=none;align=left;verticalAlign=middle;whiteSpace=wrap;rounded=0;fontSize=14;" parent="95" vertex="1">
                    <mxGeometry x="240" y="5" width="160" height="30" as="geometry"/>
                </mxCell>
                <mxCell id="81" style="edgeStyle=orthogonalEdgeStyle;html=1;fontSize=14;dashed=1;" parent="95" edge="1">
                    <mxGeometry relative="1" as="geometry">
                        <mxPoint x="210" y="61" as="sourcePoint"/>
                        <mxPoint x="230" y="61" as="targetPoint"/>
                    </mxGeometry>
                </mxCell>
                <mxCell id="82" value="Relationship" style="text;html=1;strokeColor=none;fillColor=none;align=left;verticalAlign=middle;whiteSpace=wrap;rounded=0;fontSize=14;" parent="95" vertex="1">
                    <mxGeometry x="240" y="45" width="160" height="30" as="geometry"/>
                </mxCell>
            </root>
        </mxGraphModel>
    </diagram>
</mxfile>